# xmcd
#
# Track frame offsets:
# 150
# 34867
# 72719
# 83564
# 134294
#
# Disc length: 2332 seconds
#
#
# Revision: 0
# Processed by: cddbd v1.5.1PL2 Copyright (c) Steve Scherf et al.
# Submitted via: FreeRIP 2.942 
#
DISCID=40091a05
DTITLE=Grateful Dead - Anthem Of The Sun
DYEAR=1968
DGENRE=Blues
TTITLE0=That's It For the Other Side
TTITLE1=New Potato Caboose
TTITLE2=Born Cross-Eyed
TTITLE3=Alligator
TTITLE4=Caution (Do Not Stop On The Tracks)
EXTD=LP Rip\nWarner Bros. Records - 1968
EXTT0=
EXTT1=
EXTT2=
EXTT3=
EXTT4=
PLAYORDER=
